<svg xmlns="http://www.w3.org/2000/svg" version="1.1" xmlns:xlink="http://www.w3.org/1999/xlink" xmlns:svgjs="http://svgjs.dev/svgjs" width="2000" height="2000" viewBox="0 0 2000 2000"><g transform="matrix(1,0,0,1,-0.28443113772425477,-0.28443113772459583)"><svg viewBox="0 0 334 334" data-background-color="#ffffff" preserveAspectRatio="xMidYMid meet" height="2000" width="2000" xmlns="http://www.w3.org/2000/svg" xmlns:xlink="http://www.w3.org/1999/xlink"><g id="tight-bounds" transform="matrix(1,0,0,1,0.04749999999998522,0.04750000000001364)"><svg viewBox="0 0 333.90454557049503 333.90454557049503" height="333.90454557049503" width="333.90454557049503"><g><svg></svg></g><g><svg viewBox="0 0 333.90454557049503 333.90454557049503" height="333.90454557049503" width="333.90454557049503"><g><path d="M0 166.952c0-92.205 74.747-166.952 166.952-166.952 92.205 0 166.952 74.747 166.953 166.952 0 92.205-74.747 166.952-166.953 166.953-92.205 0-166.952-74.747-166.952-166.953zM166.952 316.63c82.665 0 149.677-67.013 149.678-149.678 0-82.665-67.013-149.677-149.678-149.677-82.665 0-149.677 67.013-149.677 149.677 0 82.665 67.013 149.677 149.677 149.678z" data-fill-palette-color="tertiary" fill="#ff0000" stroke="transparent"></path><ellipse rx="160.27418187383762" ry="160.27418187383762" cx="166.95227278524752" cy="166.95227278524752" fill="#ff0000" stroke="transparent" stroke-width="0" fill-opacity="1" data-fill-palette-color="tertiary"></ellipse></g><g transform="matrix(1,0,0,1,72.25683401736715,71.17305217166896)"><svg viewBox="0 0 189.39087753576072 191.55844122715712" height="191.55844122715712" width="189.39087753576072"><g><svg viewBox="0 0 189.39087753576072 191.55844122715712" height="191.55844122715712" width="189.39087753576072"><g><svg viewBox="0 0 189.39087753576072 191.55844122715712" height="191.55844122715712" width="189.39087753576072"><g><svg viewBox="0 0 189.39087753576072 191.55844122715712" height="191.55844122715712" width="189.39087753576072"><g id="textblocktransform"><svg viewBox="0 0 189.39087753576072 191.55844122715712" height="191.55844122715712" width="189.39087753576072" id="textblock"><g><svg viewBox="0 0 189.39087753576072 191.55844122715712" height="191.55844122715712" width="189.39087753576072"><g transform="matrix(1,0,0,1,0,0)"><svg width="189.39087753576072" viewBox="0.3500000238418579 -34.29999923706055 34.95000076293945 35.349998474121094" height="191.55844122715712" data-palette-color="#ffffff"><path d="M35.3-12.9L31.5-11.8 31.5-3.35 19.95 1 18.3 1.05Q11.85 1.05 7.83-1.55 3.8-4.15 2.08-8.05 0.35-11.95 0.35-16.05L0.35-16.05Q0.35-23.9 5.75-29.1 11.15-34.3 19.65-34.3L19.65-34.3Q26.2-34.3 30.9-31.25L30.9-31.25 30.95-30.25Q30.95-25.95 29.7-21.5L29.7-21.5 23.55-21.5 21.75-28Q18.3-29.05 14.7-29.1L14.7-29.1Q12.75-27.2 11.73-24.13 10.7-21.05 10.7-17.65L10.7-17.65Q10.7-11.95 13.4-8.5 16.1-5.05 20.5-5.05L20.5-5.05 22.2-5.1 22.2-10.95Q19.35-12.35 17.7-13.6L17.7-13.6 18-15.25 35.25-15.25 35.3-12.9Z" opacity="1" transform="matrix(1,0,0,1,0,0)" fill="#ffffff" class="undefined-text-0" data-fill-palette-color="quaternary" id="text-0"></path></svg></g></svg></g></svg></g></svg></g><g></g></svg></g></svg></g></svg></g></svg></g><defs></defs></svg><rect width="333.90454557049503" height="333.90454557049503" fill="none" stroke="none" visibility="hidden"></rect></g></svg></g></svg>